<svg width="512" height="169" viewBox="0 0 512 169" fill="none" xmlns="http://www.w3.org/2000/svg">
<path d="M219.106 88.694C219.106 112.942 200.137 130.81 176.857 130.81C153.577 130.81 134.608 112.942 134.608 88.694C134.608 64.275 153.577 46.578 176.857 46.578C200.137 46.578 219.106 64.275 219.106 88.694ZM200.611 88.694C200.611 73.541 189.617 63.174 176.857 63.174C164.097 63.174 153.103 73.542 153.103 88.694C153.103 103.695 164.097 114.214 176.857 114.214C189.617 114.215 200.611 103.676 200.611 88.694Z" fill="white"/>
<path d="M310.25 88.694C310.25 112.942 291.281 130.81 268.001 130.81C244.721 130.81 225.752 112.942 225.752 88.694C225.752 64.294 244.721 46.578 268.001 46.578C291.28 46.578 310.25 64.275 310.25 88.694ZM291.755 88.694C291.755 73.541 280.761 63.174 268.001 63.174C255.241 63.174 244.247 73.542 244.247 88.694C244.247 103.695 255.241 114.214 268.001 114.214C280.761 114.215 291.755 103.676 291.755 88.694Z" fill="white"/>
<path d="M397.596 49.123V124.734C397.596 155.837 379.253 168.54 357.569 168.54C337.157 168.54 324.871 154.887 320.238 143.722L336.34 137.019C339.207 143.874 346.233 151.963 357.55 151.963C371.43 151.963 380.032 143.399 380.032 127.278V121.221H379.386C375.247 126.329 367.271 130.791 357.208 130.791C336.15 130.791 316.858 112.448 316.858 88.846C316.858 65.073 336.15 46.578 357.208 46.578C367.253 46.578 375.228 51.04 379.386 55.996H380.032V49.141H397.596V49.123ZM381.342 88.846C381.342 74.016 371.449 63.174 358.86 63.174C346.1 63.174 335.409 74.016 335.409 88.846C335.409 103.524 346.099 114.214 358.86 114.214C371.449 114.215 381.342 103.524 381.342 88.846Z" fill="white"/>
<path d="M426.553 4.804V128.228H408.514V4.804H426.553Z" fill="white"/>
<path d="M496.847 102.556L511.202 112.126C506.569 118.981 495.404 130.791 476.112 130.791C452.187 130.791 434.319 112.296 434.319 88.675C434.319 63.629 452.339 46.559 474.042 46.559C495.897 46.559 506.588 63.952 510.082 73.351L512 78.136L455.7 101.454C460.01 109.904 466.713 114.214 476.112 114.214C485.53 114.215 492.062 109.581 496.847 102.556ZM452.662 87.403L490.297 71.776C488.227 66.516 481.999 62.852 474.67 62.852C465.27 62.851 452.187 71.149 452.662 87.403Z" fill="white"/>
<path d="M66.326 77.738V59.87H126.538C127.127 62.984 127.43 66.668 127.43 70.655C127.43 84.061 123.765 100.637 111.955 112.448C100.467 124.411 85.789 130.791 66.345 130.791C30.305 130.791 0 101.435 0 65.396C0 29.357 30.305 0 66.345 0C86.283 0 100.486 7.823 111.157 18.02L98.549 30.628C90.897 23.45 80.529 17.868 66.326 17.868C40.008 17.868 19.425 39.078 19.425 65.396C19.425 91.714 40.008 112.924 66.326 112.924C83.396 112.924 93.118 106.069 99.347 99.841C104.398 94.79 107.721 87.575 109.031 77.72L66.326 77.738Z" fill="white"/>
</svg>
